<svg aria-roledescription="er" viewBox="0 0 1000.5272216796875 746" style="max-width: 1000.5272216796875px;" xmlns="http://www.w3.org/2000/svg" width="100%" id="mermaid-svg"><style>#mermaid-svg{font-family:"trebuchet ms",verdana,arial,sans-serif;font-size:16px;fill:#333;}#mermaid-svg .error-icon{fill:#552222;}#mermaid-svg .error-text{fill:#552222;stroke:#552222;}#mermaid-svg .edge-thickness-normal{stroke-width:2px;}#mermaid-svg .edge-thickness-thick{stroke-width:3.5px;}#mermaid-svg .edge-pattern-solid{stroke-dasharray:0;}#mermaid-svg .edge-pattern-dashed{stroke-dasharray:3;}#mermaid-svg .edge-pattern-dotted{stroke-dasharray:2;}#mermaid-svg .marker{fill:#333333;stroke:#333333;}#mermaid-svg .marker.cross{stroke:#333333;}#mermaid-svg svg{font-family:"trebuchet ms",verdana,arial,sans-serif;font-size:16px;}#mermaid-svg .entityBox{fill:#ECECFF;stroke:#9370DB;}#mermaid-svg .attributeBoxOdd{fill:#ffffff;stroke:#9370DB;}#mermaid-svg .attributeBoxEven{fill:#f2f2f2;stroke:#9370DB;}#mermaid-svg .relationshipLabelBox{fill:hsl(80, 100%, 96.2745098039%);opacity:0.7;background-color:hsl(80, 100%, 96.2745098039%);}#mermaid-svg .relationshipLabelBox rect{opacity:0.5;}#mermaid-svg .relationshipLine{stroke:#333333;}#mermaid-svg .entityTitleText{text-anchor:middle;font-size:18px;fill:#333;}#mermaid-svg :root{--mermaid-font-family:"trebuchet ms",verdana,arial,sans-serif;}</style><g></g><defs><marker orient="auto" markerHeight="18" markerWidth="18" refY="9" refX="0" id="ONLY_ONE_START"><path d="M9,0 L9,18 M15,0 L15,18" fill="none" stroke="gray"></path></marker></defs><defs><marker orient="auto" markerHeight="18" markerWidth="18" refY="9" refX="18" id="ONLY_ONE_END"><path d="M3,0 L3,18 M9,0 L9,18" fill="none" stroke="gray"></path></marker></defs><defs><marker orient="auto" markerHeight="18" markerWidth="30" refY="9" refX="0" id="ZERO_OR_ONE_START"><circle r="6" cy="9" cx="21" fill="white" stroke="gray"></circle><path d="M9,0 L9,18" fill="none" stroke="gray"></path></marker></defs><defs><marker orient="auto" markerHeight="18" markerWidth="30" refY="9" refX="30" id="ZERO_OR_ONE_END"><circle r="6" cy="9" cx="9" fill="white" stroke="gray"></circle><path d="M21,0 L21,18" fill="none" stroke="gray"></path></marker></defs><defs><marker orient="auto" markerHeight="36" markerWidth="45" refY="18" refX="18" id="ONE_OR_MORE_START"><path d="M0,18 Q 18,0 36,18 Q 18,36 0,18 M42,9 L42,27" fill="none" stroke="gray"></path></marker></defs><defs><marker orient="auto" markerHeight="36" markerWidth="45" refY="18" refX="27" id="ONE_OR_MORE_END"><path d="M3,9 L3,27 M9,18 Q27,0 45,18 Q27,36 9,18" fill="none" stroke="gray"></path></marker></defs><defs><marker orient="auto" markerHeight="36" markerWidth="57" refY="18" refX="18" id="ZERO_OR_MORE_START"><circle r="6" cy="18" cx="48" fill="white" stroke="gray"></circle><path d="M0,18 Q18,0 36,18 Q18,36 0,18" fill="none" stroke="gray"></path></marker></defs><defs><marker orient="auto" markerHeight="36" markerWidth="57" refY="18" refX="39" id="ZERO_OR_MORE_END"><circle r="6" cy="18" cx="9" fill="white" stroke="gray"></circle><path d="M21,18 Q39,0 57,18 Q39,36 21,18" fill="none" stroke="gray"></path></marker></defs><path style="stroke: gray; fill: none;" marker-start="url(#ONLY_ONE_START)" marker-end="url(#ONLY_ONE_END)" d="M560.7819442749023,88L560.7819442749023,96.33333333333333C560.7819442749023,104.66666666666667,560.7819442749023,121.33333333333333,560.7819442749023,138C560.7819442749023,154.66666666666666,560.7819442749023,171.33333333333334,560.7819442749023,179.66666666666666L560.7819442749023,188" class="er relationshipLine"></path><path style="stroke: gray; fill: none;" marker-start="url(#ONLY_ONE_START)" marker-end="url(#ONLY_ONE_END)" d="M398.41440919388174,346L381.2870320756306,354.3333333333333C364.1596549573795,362.6666666666667,329.90490072087727,379.3333333333333,312.7775236026261,396C295.650146484375,412.6666666666667,295.650146484375,429.3333333333333,295.650146484375,437.6666666666667L295.650146484375,446" class="er relationshipLine"></path><path style="stroke: gray; fill: none;" marker-start="url(#ONLY_ONE_START)" marker-end="url(#ONLY_ONE_END)" d="M723.149479355923,346L740.2768564741741,354.3333333333333C757.4042335924252,362.6666666666667,791.6589878289275,379.3333333333333,808.7863649471786,397.8333333333333C825.9137420654297,416.3333333333333,825.9137420654297,436.6666666666667,825.9137420654297,446.8333333333333L825.9137420654297,457" class="er relationshipLine"></path><path style="stroke: gray; fill: none;" marker-start="url(#ONLY_ONE_START)" marker-end="url(#ONLY_ONE_END)" d="M295.650146484375,536L295.650146484375,544.3333333333334C295.650146484375,552.6666666666666,295.650146484375,569.3333333333334,318.9073217291581,586C342.1644969739412,602.6666666666666,388.67884746350745,619.3333333333334,411.93602270829047,627.6666666666666L435.1931979530736,636" class="er relationshipLine"></path><path style="stroke: gray; fill: none;" marker-start="url(#ONLY_ONE_START)" marker-end="url(#ONLY_ONE_END)" d="M825.9137420654297,525L825.9137420654297,535.1666666666666C825.9137420654297,545.3333333333334,825.9137420654297,565.6666666666666,802.6565668206466,584.1666666666666C779.3993915758634,602.6666666666666,732.8850410862973,619.3333333333334,709.6278658415141,627.6666666666666L686.370690596731,636" class="er relationshipLine"></path><g transform="translate(390.09444427490234,20 )" id="entity-EuropeanCommission-431e517d-7f75-4992-b8e9-69ee8587d903"><rect height="68" width="341.375" y="0" x="0" class="er entityBox"></rect><text style="dominant-baseline: middle; text-anchor: middle; font-size: 12px;" transform="translate(170.6875,12)" y="0" x="0" id="text-entity-EuropeanCommission-431e517d-7f75-4992-b8e9-69ee8587d903" class="er entityLabel">European Commission</text><rect height="22" width="37.25" y="24" x="0" class="er attributeBoxOdd"></rect><text style="dominant-baseline: middle; font-size: 10.2px;" transform="translate(5,35)" y="0" x="0" id="text-entity-EuropeanCommission-431e517d-7f75-4992-b8e9-69ee8587d903-attr-1-type" class="er entityLabel">role</text><rect height="22" width="104.03125" y="24" x="37.25" class="er attributeBoxOdd"></rect><text style="dominant-baseline: middle; font-size: 10.2px;" transform="translate(42.25,35)" y="0" x="0" id="text-entity-EuropeanCommission-431e517d-7f75-4992-b8e9-69ee8587d903-attr-1-name" class="er entityLabel">legislation_initiation</text><rect height="22" width="200.09375" y="24" x="141.28125" class="er attributeBoxOdd"></rect><text style="dominant-baseline: middle; font-size: 10.2px;" transform="translate(146.28125,35)" y="0" x="0" id="text-entity-EuropeanCommission-431e517d-7f75-4992-b8e9-69ee8587d903-attr-1-comment" class="er entityLabel">represents EU's overall interests</text><rect height="22" width="37.25" y="46" x="0" class="er attributeBoxEven"></rect><text style="dominant-baseline: middle; font-size: 10.2px;" transform="translate(5,57)" y="0" x="0" id="text-entity-EuropeanCommission-431e517d-7f75-4992-b8e9-69ee8587d903-attr-2-type" class="er entityLabel">status</text><rect height="22" width="104.03125" y="46" x="37.25" class="er attributeBoxEven"></rect><text style="dominant-baseline: middle; font-size: 10.2px;" transform="translate(42.25,57)" y="0" x="0" id="text-entity-EuropeanCommission-431e517d-7f75-4992-b8e9-69ee8587d903-attr-2-name" class="er entityLabel">proposals_published</text><rect height="22" width="200.09375" y="46" x="141.28125" class="er attributeBoxEven"></rect><text style="dominant-baseline: middle; font-size: 10.2px;" transform="translate(146.28125,57)" y="0" x="0" id="text-entity-EuropeanCommission-431e517d-7f75-4992-b8e9-69ee8587d903-attr-2-comment" class="er entityLabel">published EU AI Act proposals 23 Apr 2021</text></g><g transform="translate(243.63350677490234,188 )" id="entity-EUAIActProposals-78f265ce-48da-4511-a969-94964c4f5576"><rect height="158" width="634.296875" y="0" x="0" class="er entityBox"></rect><text style="dominant-baseline: middle; text-anchor: middle; font-size: 12px;" transform="translate(317.1484375,12)" y="0" x="0" id="text-entity-EUAIActProposals-78f265ce-48da-4511-a969-94964c4f5576" class="er entityLabel">EU AI Act Proposals</text><rect height="23" width="114.953125" y="24" x="0" class="er attributeBoxOdd"></rect><text style="dominant-baseline: middle; font-size: 10.2px;" transform="translate(5,35.5)" y="0" x="0" id="text-entity-EUAIActProposals-78f265ce-48da-4511-a969-94964c4f5576-attr-1-type" class="er entityLabel">typeAI</text><rect height="23" width="105.109375" y="24" x="114.953125" class="er attributeBoxOdd"></rect><text style="dominant-baseline: middle; font-size: 10.2px;" transform="translate(119.953125,35.5)" y="0" x="0" id="text-entity-EUAIActProposals-78f265ce-48da-4511-a969-94964c4f5576-attr-1-name" class="er entityLabel">algorithm_types</text><rect height="23" width="414.234375" y="24" x="220.0625" class="er attributeBoxOdd"></rect><text style="dominant-baseline: middle; font-size: 10.2px;" transform="translate(225.0625,35.5)" y="0" x="0" id="text-entity-EUAIActProposals-78f265ce-48da-4511-a969-94964c4f5576-attr-1-comment" class="er entityLabel">(un)supervised, RL, DL, statistical, Bayesian, search, optimisation, expert systems, et al</text><rect height="22" width="114.953125" y="47" x="0" class="er attributeBoxEven"></rect><text style="dominant-baseline: middle; font-size: 10.2px;" transform="translate(5,58)" y="0" x="0" id="text-entity-EUAIActProposals-78f265ce-48da-4511-a969-94964c4f5576-attr-2-type" class="er entityLabel">typeAIRisk</text><rect height="22" width="105.109375" y="47" x="114.953125" class="er attributeBoxEven"></rect><text style="dominant-baseline: middle; font-size: 10.2px;" transform="translate(119.953125,58)" y="0" x="0" id="text-entity-EUAIActProposals-78f265ce-48da-4511-a969-94964c4f5576-attr-2-name" class="er entityLabel">algorithm_risk_types</text><rect height="22" width="414.234375" y="47" x="220.0625" class="er attributeBoxEven"></rect><text style="dominant-baseline: middle; font-size: 10.2px;" transform="translate(225.0625,58)" y="0" x="0" id="text-entity-EUAIActProposals-78f265ce-48da-4511-a969-94964c4f5576-attr-2-comment" class="er entityLabel">unacceptable, high, low/minimal</text><rect height="23" width="114.953125" y="69" x="0" class="er attributeBoxOdd"></rect><text style="dominant-baseline: middle; font-size: 10.2px;" transform="translate(5,80.5)" y="0" x="0" id="text-entity-EUAIActProposals-78f265ce-48da-4511-a969-94964c4f5576-attr-3-type" class="er entityLabel">highRiskAI</text><rect height="23" width="105.109375" y="69" x="114.953125" class="er attributeBoxOdd"></rect><text style="dominant-baseline: middle; font-size: 10.2px;" transform="translate(119.953125,80.5)" y="0" x="0" id="text-entity-EUAIActProposals-78f265ce-48da-4511-a969-94964c4f5576-attr-3-name" class="er entityLabel">requirements</text><rect height="23" width="414.234375" y="69" x="220.0625" class="er attributeBoxOdd"></rect><text style="dominant-baseline: middle; font-size: 10.2px;" transform="translate(225.0625,80.5)" y="0" x="0" id="text-entity-EUAIActProposals-78f265ce-48da-4511-a969-94964c4f5576-attr-3-comment" class="er entityLabel">technical documentation, horizontality (GDPR), EU AI Board, high-risk AI database</text><rect height="22" width="114.953125" y="92" x="0" class="er attributeBoxEven"></rect><text style="dominant-baseline: middle; font-size: 10.2px;" transform="translate(5,103)" y="0" x="0" id="text-entity-EUAIActProposals-78f265ce-48da-4511-a969-94964c4f5576-attr-4-type" class="er entityLabel">minimalRiskAI</text><rect height="22" width="105.109375" y="92" x="114.953125" class="er attributeBoxEven"></rect><text style="dominant-baseline: middle; font-size: 10.2px;" transform="translate(119.953125,103)" y="0" x="0" id="text-entity-EUAIActProposals-78f265ce-48da-4511-a969-94964c4f5576-attr-4-name" class="er entityLabel">requirements</text><rect height="22" width="414.234375" y="92" x="220.0625" class="er attributeBoxEven"></rect><text style="dominant-baseline: middle; font-size: 10.2px;" transform="translate(225.0625,103)" y="0" x="0" id="text-entity-EUAIActProposals-78f265ce-48da-4511-a969-94964c4f5576-attr-4-comment" class="er entityLabel">voluntary code of conduct</text><rect height="22" width="114.953125" y="114" x="0" class="er attributeBoxOdd"></rect><text style="dominant-baseline: middle; font-size: 10.2px;" transform="translate(5,125)" y="0" x="0" id="text-entity-EUAIActProposals-78f265ce-48da-4511-a969-94964c4f5576-attr-5-type" class="er entityLabel">innovationAccelerators</text><rect height="22" width="105.109375" y="114" x="114.953125" class="er attributeBoxOdd"></rect><text style="dominant-baseline: middle; font-size: 10.2px;" transform="translate(119.953125,125)" y="0" x="0" id="text-entity-EUAIActProposals-78f265ce-48da-4511-a969-94964c4f5576-attr-5-name" class="er entityLabel">proposed</text><rect height="22" width="414.234375" y="114" x="220.0625" class="er attributeBoxOdd"></rect><text style="dominant-baseline: middle; font-size: 10.2px;" transform="translate(225.0625,125)" y="0" x="0" id="text-entity-EUAIActProposals-78f265ce-48da-4511-a969-94964c4f5576-attr-5-comment" class="er entityLabel">establish AI regulatory sandboxes</text><rect height="22" width="114.953125" y="136" x="0" class="er attributeBoxEven"></rect><text style="dominant-baseline: middle; font-size: 10.2px;" transform="translate(5,147)" y="0" x="0" id="text-entity-EUAIActProposals-78f265ce-48da-4511-a969-94964c4f5576-attr-6-type" class="er entityLabel">futureScope</text><rect height="22" width="105.109375" y="136" x="114.953125" class="er attributeBoxEven"></rect><text style="dominant-baseline: middle; font-size: 10.2px;" transform="translate(119.953125,147)" y="0" x="0" id="text-entity-EUAIActProposals-78f265ce-48da-4511-a969-94964c4f5576-attr-6-name" class="er entityLabel">desired</text><rect height="22" width="414.234375" y="136" x="220.0625" class="er attributeBoxEven"></rect><text style="dominant-baseline: middle; font-size: 10.2px;" transform="translate(225.0625,147)" y="0" x="0" id="text-entity-EUAIActProposals-78f265ce-48da-4511-a969-94964c4f5576-attr-6-comment" class="er entityLabel">shape global norms and standards and promote trustworthy AI</text></g><g transform="translate(20,446 )" id="entity-CounciloftheEU-2c8687be-3106-4a41-be37-45bd10e49719"><rect height="90" width="551.3003234863281" y="0" x="0" class="er entityBox"></rect><text style="dominant-baseline: middle; text-anchor: middle; font-size: 12px;" transform="translate(275.65016174316406,12)" y="0" x="0" id="text-entity-CounciloftheEU-2c8687be-3106-4a41-be37-45bd10e49719" class="er entityLabel">Council of the EU</text><rect height="22" width="52.626251220703125" y="24" x="0" class="er attributeBoxOdd"></rect><text style="dominant-baseline: middle; font-size: 10.2px;" transform="translate(5,35)" y="0" x="0" id="text-entity-CounciloftheEU-2c8687be-3106-4a41-be37-45bd10e49719-attr-1-type" class="er entityLabel">role</text><rect height="22" width="129.21127319335938" y="24" x="52.626251220703125" class="er attributeBoxOdd"></rect><text style="dominant-baseline: middle; font-size: 10.2px;" transform="translate(57.626251220703125,35)" y="0" x="0" id="text-entity-CounciloftheEU-2c8687be-3106-4a41-be37-45bd10e49719-attr-1-name" class="er entityLabel">legislation_review_signoff</text><rect height="22" width="369.4627990722656" y="24" x="181.8375244140625" class="er attributeBoxOdd"></rect><text style="dominant-baseline: middle; font-size: 10.2px;" transform="translate(186.8375244140625,35)" y="0" x="0" id="text-entity-CounciloftheEU-2c8687be-3106-4a41-be37-45bd10e49719-attr-1-comment" class="er entityLabel">represents EU governments</text><rect height="22" width="52.626251220703125" y="46" x="0" class="er attributeBoxEven"></rect><text style="dominant-baseline: middle; font-size: 10.2px;" transform="translate(5,57)" y="0" x="0" id="text-entity-CounciloftheEU-2c8687be-3106-4a41-be37-45bd10e49719-attr-2-type" class="er entityLabel">status</text><rect height="22" width="129.21127319335938" y="46" x="52.626251220703125" class="er attributeBoxEven"></rect><text style="dominant-baseline: middle; font-size: 10.2px;" transform="translate(57.626251220703125,57)" y="0" x="0" id="text-entity-CounciloftheEU-2c8687be-3106-4a41-be37-45bd10e49719-attr-2-name" class="er entityLabel">feedback_released</text><rect height="22" width="369.4627990722656" y="46" x="181.8375244140625" class="er attributeBoxEven"></rect><text style="dominant-baseline: middle; font-size: 10.2px;" transform="translate(186.8375244140625,57)" y="0" x="0" id="text-entity-CounciloftheEU-2c8687be-3106-4a41-be37-45bd10e49719-attr-2-comment" class="er entityLabel">released General approach 25 Nov 2022</text><rect height="22" width="52.626251220703125" y="68" x="0" class="er attributeBoxOdd"></rect><text style="dominant-baseline: middle; font-size: 10.2px;" transform="translate(5,79)" y="0" x="0" id="text-entity-CounciloftheEU-2c8687be-3106-4a41-be37-45bd10e49719-attr-3-type" class="er entityLabel">feedback</text><rect height="22" width="129.21127319335938" y="68" x="52.626251220703125" class="er attributeBoxOdd"></rect><text style="dominant-baseline: middle; font-size: 10.2px;" transform="translate(57.626251220703125,79)" y="0" x="0" id="text-entity-CounciloftheEU-2c8687be-3106-4a41-be37-45bd10e49719-attr-3-name" class="er entityLabel">general_purpose_AI</text><rect height="22" width="369.4627990722656" y="68" x="181.8375244140625" class="er attributeBoxOdd"></rect><text style="dominant-baseline: middle; font-size: 10.2px;" transform="translate(186.8375244140625,79)" y="0" x="0" id="text-entity-CounciloftheEU-2c8687be-3106-4a41-be37-45bd10e49719-attr-3-comment" class="er entityLabel">where general purpose AI technology gets integrated ... may become high-risk</text></g><g transform="translate(671.30029296875,457 )" id="entity-EuropeanParliament-5501b3a8-06ca-4a8b-8e8f-a77e5e2ab510"><rect height="68" width="309.2268981933594" y="0" x="0" class="er entityBox"></rect><text style="dominant-baseline: middle; text-anchor: middle; font-size: 12px;" transform="translate(154.6134490966797,12)" y="0" x="0" id="text-entity-EuropeanParliament-5501b3a8-06ca-4a8b-8e8f-a77e5e2ab510" class="er entityLabel">European Parliament</text><rect height="22" width="37.25" y="24" x="0" class="er attributeBoxOdd"></rect><text style="dominant-baseline: middle; font-size: 10.2px;" transform="translate(5,35)" y="0" x="0" id="text-entity-EuropeanParliament-5501b3a8-06ca-4a8b-8e8f-a77e5e2ab510-attr-1-type" class="er entityLabel">role</text><rect height="22" width="129.21127319335938" y="24" x="37.25" class="er attributeBoxOdd"></rect><text style="dominant-baseline: middle; font-size: 10.2px;" transform="translate(42.25,35)" y="0" x="0" id="text-entity-EuropeanParliament-5501b3a8-06ca-4a8b-8e8f-a77e5e2ab510-attr-1-name" class="er entityLabel">legislation_review_signoff</text><rect height="22" width="142.765625" y="24" x="166.46127319335938" class="er attributeBoxOdd"></rect><text style="dominant-baseline: middle; font-size: 10.2px;" transform="translate(171.46127319335938,35)" y="0" x="0" id="text-entity-EuropeanParliament-5501b3a8-06ca-4a8b-8e8f-a77e5e2ab510-attr-1-comment" class="er entityLabel">represents EU citizens</text><rect height="22" width="37.25" y="46" x="0" class="er attributeBoxEven"></rect><text style="dominant-baseline: middle; font-size: 10.2px;" transform="translate(5,57)" y="0" x="0" id="text-entity-EuropeanParliament-5501b3a8-06ca-4a8b-8e8f-a77e5e2ab510-attr-2-type" class="er entityLabel">status</text><rect height="22" width="129.21127319335938" y="46" x="37.25" class="er attributeBoxEven"></rect><text style="dominant-baseline: middle; font-size: 10.2px;" transform="translate(42.25,57)" y="0" x="0" id="text-entity-EuropeanParliament-5501b3a8-06ca-4a8b-8e8f-a77e5e2ab510-attr-2-name" class="er entityLabel">pending</text><rect height="22" width="142.765625" y="46" x="166.46127319335938" class="er attributeBoxEven"></rect><text style="dominant-baseline: middle; font-size: 10.2px;" transform="translate(171.46127319335938,57)" y="0" x="0" id="text-entity-EuropeanParliament-5501b3a8-06ca-4a8b-8e8f-a77e5e2ab510-attr-2-comment" class="er entityLabel">being led by two committees</text></g><g transform="translate(336.48848724365234,636 )" id="entity-EUAIActLegislation-e9e8e014-ad89-4195-9d18-78ada8d6cb18"><rect height="90" width="448.5869140625" y="0" x="0" class="er entityBox"></rect><text style="dominant-baseline: middle; text-anchor: middle; font-size: 12px;" transform="translate(224.29345703125,12)" y="0" x="0" id="text-entity-EUAIActLegislation-e9e8e014-ad89-4195-9d18-78ada8d6cb18" class="er entityLabel">EU AI Act Legislation</text><rect height="22" width="80.16433715820312" y="24" x="0" class="er attributeBoxOdd"></rect><text style="dominant-baseline: middle; font-size: 10.2px;" transform="translate(5,35)" y="0" x="0" id="text-entity-EUAIActLegislation-e9e8e014-ad89-4195-9d18-78ada8d6cb18-attr-1-type" class="er entityLabel">expectedDate</text><rect height="22" width="56.453125" y="24" x="80.16433715820312" class="er attributeBoxOdd"></rect><text style="dominant-baseline: middle; font-size: 10.2px;" transform="translate(85.16433715820312,35)" y="0" x="0" id="text-entity-EUAIActLegislation-e9e8e014-ad89-4195-9d18-78ada8d6cb18-attr-1-name" class="er entityLabel">late_2023</text><rect height="22" width="311.9694519042969" y="24" x="136.61746215820312" class="er attributeBoxOdd"></rect><text style="dominant-baseline: middle; font-size: 10.2px;" transform="translate(141.61746215820312,35)" y="0" x="0" id="text-entity-EUAIActLegislation-e9e8e014-ad89-4195-9d18-78ada8d6cb18-attr-1-comment" class="er entityLabel">see links in post</text><rect height="22" width="80.16433715820312" y="46" x="0" class="er attributeBoxEven"></rect><text style="dominant-baseline: middle; font-size: 10.2px;" transform="translate(5,57)" y="0" x="0" id="text-entity-EUAIActLegislation-e9e8e014-ad89-4195-9d18-78ada8d6cb18-attr-2-type" class="er entityLabel">gracePeriod</text><rect height="22" width="56.453125" y="46" x="80.16433715820312" class="er attributeBoxEven"></rect><text style="dominant-baseline: middle; font-size: 10.2px;" transform="translate(85.16433715820312,57)" y="0" x="0" id="text-entity-EUAIActLegislation-e9e8e014-ad89-4195-9d18-78ada8d6cb18-attr-2-name" class="er entityLabel">two_years</text><rect height="22" width="311.9694519042969" y="46" x="136.61746215820312" class="er attributeBoxEven"></rect><text style="dominant-baseline: middle; font-size: 10.2px;" transform="translate(141.61746215820312,57)" y="0" x="0" id="text-entity-EUAIActLegislation-e9e8e014-ad89-4195-9d18-78ada8d6cb18-attr-2-comment" class="er entityLabel">two years from date of legislation</text><rect height="22" width="80.16433715820312" y="68" x="0" class="er attributeBoxOdd"></rect><text style="dominant-baseline: middle; font-size: 10.2px;" transform="translate(5,79)" y="0" x="0" id="text-entity-EUAIActLegislation-e9e8e014-ad89-4195-9d18-78ada8d6cb18-attr-3-type" class="er entityLabel">nonCompliance</text><rect height="22" width="56.453125" y="68" x="80.16433715820312" class="er attributeBoxOdd"></rect><text style="dominant-baseline: middle; font-size: 10.2px;" transform="translate(85.16433715820312,79)" y="0" x="0" id="text-entity-EUAIActLegislation-e9e8e014-ad89-4195-9d18-78ada8d6cb18-attr-3-name" class="er entityLabel">penalties</text><rect height="22" width="311.9694519042969" y="68" x="136.61746215820312" class="er attributeBoxOdd"></rect><text style="dominant-baseline: middle; font-size: 10.2px;" transform="translate(141.61746215820312,79)" y="0" x="0" id="text-entity-EUAIActLegislation-e9e8e014-ad89-4195-9d18-78ada8d6cb18-attr-3-comment" class="er entityLabel">up to greater of EUR 30 million or 6 % of total worldwide turnover</text></g><rect height="14" width="49.015625" y="131" x="536.2741088867188" class="er relationshipLabelBox"></rect><text style="text-anchor: middle; dominant-baseline: middle; font-size: 12px;" y="138" x="560.7819213867188" id="rel1" class="er relationshipLabel">proposed</text><rect height="14" width="98.361328125" y="375.2413024902344" x="281.1732177734375" class="er relationshipLabelBox"></rect><text style="text-anchor: middle; dominant-baseline: middle; font-size: 12px;" y="382.2413024902344" x="330.3538818359375" id="rel2" class="er relationshipLabel">being reviewed by</text><rect height="14" width="98.361328125" y="378.5877685546875" x="745.6861572265625" class="er relationshipLabelBox"></rect><text style="text-anchor: middle; dominant-baseline: middle; font-size: 12px;" y="385.5877685546875" x="794.8668212890625" id="rel3" class="er relationshipLabel">being reviewed by</text><rect height="14" width="91.83203125" y="595.6654052734375" x="302.9377136230469" class="er relationshipLabelBox"></rect><text style="text-anchor: middle; dominant-baseline: middle; font-size: 12px;" y="602.6654052734375" x="348.8537292480469" id="rel4" class="er relationshipLabel">upon acceptance</text><rect height="14" width="91.83203125" y="593.1638793945312" x="730.7498168945312" class="er relationshipLabelBox"></rect><text style="text-anchor: middle; dominant-baseline: middle; font-size: 12px;" y="600.1638793945312" x="776.6658325195312" id="rel5" class="er relationshipLabel">upon acceptance</text><style>@import url("https://cdnjs.cloudflare.com/ajax/libs/font-awesome/5.15.2/css/all.min.css");</style></svg>